<svg width="32" height="32" viewBox="0 0 32 32" fill="none" xmlns="http://www.w3.org/2000/svg">
<path d="M16 2.66675C8.65199 2.66675 2.66666 8.65208 2.66666 16.0001C2.66666 23.3481 8.65199 29.3334 16 29.3334C23.348 29.3334 29.3333 23.3481 29.3333 16.0001C29.3333 8.65208 23.348 2.66675 16 2.66675ZM16 5.33341C21.9068 5.33341 26.6667 10.0933 26.6667 16.0001C26.6667 21.3527 22.7538 25.7508 17.625 26.5313V19.1798H20.7292L21.2161 16.0261H17.625V14.3022C17.625 12.9915 18.052 11.8282 19.2786 11.8282H21.2474V9.0756C20.9007 9.02893 20.1691 8.92716 18.7864 8.92716C15.8984 8.92716 14.2057 10.4525 14.2057 13.9272V16.0261H11.237V19.1798H14.2057V26.5053C9.16038 25.6545 5.33332 21.2937 5.33332 16.0001C5.33332 10.0933 10.0932 5.33341 16 5.33341Z" fill="#62644C"/>
</svg>
