<svg width="32" height="32" viewBox="0 0 32 32" fill="none" xmlns="http://www.w3.org/2000/svg">
<g clip-path="url(#clip0_33_403)">
<path d="M25.4 6.54675C22.9067 4.04008 19.5867 2.66675 16.0533 2.66675C8.77333 2.66675 2.84 8.60008 2.84 15.8801C2.84 18.2134 3.45333 20.4801 4.6 22.4801L2.73333 29.3334L9.73333 27.4934C11.6667 28.5467 13.84 29.1067 16.0533 29.1067C23.3333 29.1067 29.2667 23.1734 29.2667 15.8934C29.2667 12.3601 27.8933 9.04008 25.4 6.54675ZM16.0533 26.8667C14.08 26.8667 12.1467 26.3334 10.4533 25.3334L10.0533 25.0934L5.89333 26.1867L7 22.1334L6.73333 21.7201C5.64 19.9734 5.05333 17.9467 5.05333 15.8801C5.05333 9.82675 9.98666 4.89341 16.04 4.89341C18.9733 4.89341 21.7333 6.04008 23.8 8.12008C25.88 10.2001 27.0133 12.9601 27.0133 15.8934C27.04 21.9467 22.1067 26.8667 16.0533 26.8667ZM22.08 18.6534C21.7467 18.4934 20.12 17.6934 19.8267 17.5734C19.52 17.4667 19.3067 17.4134 19.08 17.7334C18.8533 18.0667 18.2267 18.8134 18.04 19.0267C17.8533 19.2534 17.6533 19.2801 17.32 19.1067C16.9867 18.9467 15.92 18.5867 14.6667 17.4667C13.68 16.5867 13.0267 15.5067 12.8267 15.1734C12.64 14.8401 12.8 14.6667 12.9733 14.4934C13.12 14.3467 13.3067 14.1067 13.4667 13.9201C13.6267 13.7334 13.6933 13.5867 13.8 13.3734C13.9067 13.1467 13.8533 12.9601 13.7733 12.8001C13.6933 12.6401 13.0267 11.0134 12.76 10.3467C12.4933 9.70675 12.2133 9.78675 12.0133 9.77341C11.8133 9.77341 11.6 9.77341 11.3733 9.77341C11.1467 9.77341 10.8 9.85341 10.4933 10.1867C10.2 10.5201 9.34666 11.3201 9.34666 12.9467C9.34666 14.5734 10.5333 16.1467 10.6933 16.3601C10.8533 16.5867 13.0267 19.9201 16.3333 21.3467C17.12 21.6934 17.7333 21.8934 18.2133 22.0401C19 22.2934 19.72 22.2534 20.2933 22.1734C20.9333 22.0801 22.2533 21.3734 22.52 20.6001C22.8 19.8267 22.8 19.1734 22.7067 19.0267C22.6133 18.8801 22.4133 18.8134 22.08 18.6534Z" fill="#62644C"/>
</g>
<defs>
<clipPath id="clip0_33_403">
<rect width="32" height="32" fill="white"/>
</clipPath>
</defs>
</svg>
