<?xml version="1.0" standalone="no"?>
<!DOCTYPE svg PUBLIC "-//W3C//DTD SVG 20010904//EN"
 "http://www.w3.org/TR/2001/REC-SVG-20010904/DTD/svg10.dtd">
<svg version="1.0" xmlns="http://www.w3.org/2000/svg"
 width="1703.000000pt" height="1659.000000pt" viewBox="0 0 1703.000000 1659.000000"
 preserveAspectRatio="xMidYMid meet">

<g transform="translate(0.000000,1659.000000) scale(0.100000,-0.100000)"
fill="#62644C" stroke="none">
<path d="M8707 16264 c-3 -5 -10 -71 -17 -146 -17 -206 5 -405 66 -593 34
-102 123 -278 182 -358 25 -34 54 -84 63 -112 19 -54 23 -45 10 22 -5 28 -3
67 7 115 23 116 20 341 -7 466 -37 178 -108 340 -216 500 -65 96 -81 116 -88
106z"/>
<path d="M7913 16034 c-52 -26 -76 -74 -71 -141 4 -49 10 -61 41 -90 32 -29
44 -33 89 -33 65 0 108 24 131 73 23 48 21 98 -6 138 -42 63 -119 85 -184 53z"/>
<path d="M9600 15938 c-142 -73 -94 -281 66 -283 59 0 94 20 132 75 58 85 -6
213 -114 226 -28 4 -51 -1 -84 -18z"/>
<path d="M9157 15944 c-3 -5 -10 -71 -17 -146 -28 -339 51 -658 230 -923 26
-39 59 -102 73 -141 13 -38 28 -77 32 -87 4 -10 -50 24 -121 76 -331 240 -614
412 -774 468 -40 14 -83 39 -112 64 -91 81 -254 148 -436 180 -134 24 -382 18
-409 -9 -3 -3 4 -25 16 -50 86 -176 379 -248 797 -195 l91 12 109 -54 c60 -30
158 -83 217 -119 l108 -65 -43 -14 c-28 -9 -82 -13 -153 -12 -168 3 -336 -39
-520 -131 -135 -68 -285 -180 -285 -213 0 -47 212 -53 355 -10 176 52 366 157
473 261 55 54 59 56 140 70 l84 13 76 -51 c158 -106 412 -300 405 -310 -3 -6
-1 -8 5 -5 5 4 46 -20 90 -53 43 -33 85 -60 92 -60 18 0 -9 30 -99 107 -72 61
-75 66 -102 151 l-29 87 17 85 c24 126 22 337 -6 467 -37 178 -103 334 -207
488 -71 106 -90 129 -97 119z"/>
<path d="M6885 15796 c-58 -27 -88 -57 -110 -108 -47 -114 30 -267 150 -299
96 -26 203 16 252 99 23 38 28 59 28 113 0 56 -5 73 -30 114 -60 97 -183 131
-290 81z"/>
<path d="M10355 15590 c-139 -22 -227 -41 -343 -76 -83 -25 -84 -26 -66 -45
44 -48 191 -98 354 -120 127 -17 430 -6 555 21 113 24 195 56 195 76 0 22 -70
94 -113 115 -100 52 -353 64 -582 29z"/>
<path d="M5954 15390 c-73 -23 -134 -126 -120 -203 13 -71 80 -138 151 -151
121 -23 238 102 207 221 -15 53 -35 83 -78 112 -36 25 -114 35 -160 21z"/>
<path d="M7404 15271 c-97 -59 -53 -211 62 -211 39 0 51 5 80 34 29 29 34 41
34 81 0 40 -5 52 -34 81 -40 40 -92 46 -142 15z"/>
<path d="M11248 15266 c-88 -32 -128 -87 -128 -177 0 -66 23 -114 73 -150 149
-108 352 49 282 219 -39 93 -139 140 -227 108z"/>
<path d="M6488 15243 c-9 -15 -87 -116 -173 -223 -243 -303 -278 -373 -279
-565 0 -100 8 -162 35 -268 l10 -38 29 58 c28 55 69 110 202 268 140 167 202
379 196 668 -3 125 -3 128 -20 100z"/>
<path d="M5534 15053 c-144 -172 -234 -376 -264 -601 -17 -125 -8 -322 20
-432 27 -104 97 -255 152 -328 46 -62 51 -59 62 28 4 30 36 186 71 345 35 160
71 340 81 400 19 127 22 368 6 437 -17 67 -49 149 -70 176 l-18 23 -40 -48z"/>
<path d="M10000 15028 c-134 -39 -178 -206 -82 -307 55 -58 130 -75 200 -46
70 30 121 102 122 173 0 63 -45 138 -100 167 -37 19 -100 25 -140 13z"/>
<path d="M10658 15010 c-24 -24 -29 -36 -24 -58 7 -30 49 -72 71 -72 79 0 112
110 44 145 -41 22 -57 19 -91 -15z"/>
<path d="M6916 14784 c-151 -37 -301 -158 -445 -361 -69 -98 -78 -106 -189
-178 -65 -42 -154 -97 -199 -122 -122 -68 -317 -219 -455 -351 -185 -179 -289
-315 -342 -448 -15 -36 -45 -90 -67 -119 -62 -82 -152 -292 -210 -488 -13 -43
-26 -80 -30 -83 -4 -2 -10 15 -13 38 -16 137 -48 378 -54 408 -6 26 1 59 29
145 50 146 69 269 69 434 0 213 -34 379 -107 526 -43 86 -81 137 -95 129 -16
-10 -104 -200 -132 -287 -46 -142 -61 -232 -60 -377 0 -188 34 -303 130 -443
45 -65 64 -130 75 -260 7 -82 18 -136 49 -228 45 -133 50 -180 36 -365 -10
-129 0 -170 28 -116 9 17 19 53 23 79 5 41 13 55 57 96 64 61 183 151 242 184
44 25 47 25 107 12 40 -9 123 -14 232 -14 150 1 182 4 276 27 190 48 334 116
466 220 70 55 107 98 96 109 -14 12 -163 39 -278 49 -129 11 -290 -1 -410 -31
-165 -41 -348 -155 -426 -264 -21 -29 -64 -67 -114 -99 -118 -77 -175 -109
-182 -103 -3 4 0 35 6 69 44 228 183 538 287 642 46 45 130 95 204 121 41 15
43 14 123 -25 126 -61 195 -74 382 -74 182 1 326 25 528 90 180 58 447 168
447 185 0 13 -129 81 -220 116 -150 56 -272 76 -465 77 -183 1 -267 -10 -400
-51 -146 -46 -244 -104 -339 -201 -39 -40 -72 -63 -100 -72 -22 -7 -63 -24
-91 -39 -67 -35 -65 -34 -65 -23 0 34 280 345 440 489 137 123 240 198 338
248 87 43 156 53 244 35 61 -13 67 -17 179 -127 149 -144 173 -156 324 -155
95 0 686 39 692 45 4 5 -175 149 -254 206 -279 199 -517 233 -802 113 -61 -26
-77 -29 -145 -24 -121 8 -116 18 63 123 l104 62 126 8 c268 17 276 20 491 164
146 98 342 246 348 264 4 13 -212 31 -359 30 -78 0 -158 -7 -193 -15z"/>
<path d="M11371 14745 c-111 -25 -212 -63 -361 -136 -80 -39 -152 -76 -160
-83 -8 -7 -54 -18 -103 -25 -119 -16 -311 -65 -354 -91 l-35 -21 -133 21 c-74
11 -139 20 -145 20 -6 0 -17 -15 -25 -32 -13 -31 -12 -33 8 -40 12 -3 42 -6
67 -7 44 -1 49 -5 160 -113 169 -166 191 -219 168 -410 -20 -167 16 -378 101
-583 64 -158 174 -314 250 -358 l31 -18 25 53 c99 219 19 653 -175 938 -41 61
-107 124 -146 142 -14 6 -45 41 -69 77 -24 36 -82 110 -129 163 l-86 97 68 -5
c179 -15 432 -90 612 -181 l113 -58 73 -171 73 -171 -38 -76 c-127 -253 -82
-642 133 -1129 95 -216 111 -248 121 -245 20 7 75 133 94 217 46 195 53 481
16 700 -42 257 -136 460 -238 515 -32 17 -36 24 -42 74 -8 66 -38 149 -66 185
-32 40 -11 31 73 -32 175 -131 378 -331 566 -557 48 -58 50 -63 76 -192 14
-72 26 -146 26 -165 0 -18 5 -51 11 -73 10 -37 9 -41 -12 -55 -50 -32 -127
-112 -152 -157 -61 -114 -73 -237 -51 -544 9 -128 14 -279 11 -334 l-5 -100
67 71 c212 221 339 559 303 805 -13 89 -63 208 -105 247 -24 22 -24 26 -19
140 2 64 8 121 12 126 5 4 18 -10 29 -33 12 -22 35 -62 51 -87 16 -26 37 -72
46 -103 8 -31 24 -70 33 -87 17 -28 17 -37 5 -95 -10 -47 -11 -80 -4 -125 21
-128 65 -211 232 -432 116 -154 194 -266 223 -322 l19 -35 14 45 c22 72 27
309 8 415 -52 298 -195 509 -388 572 l-54 18 -89 172 c-49 95 -87 174 -85 177
3 2 21 7 40 11 35 6 35 6 64 -57 79 -171 293 -281 600 -308 109 -9 268 -4 294
10 10 5 -1 16 -35 38 -26 17 -124 92 -218 167 -93 74 -200 151 -237 169 -92
47 -187 62 -303 48 -49 -6 -130 -9 -180 -5 l-90 6 -75 101 c-41 55 -147 174
-236 263 l-161 162 30 11 c47 16 62 13 258 -41 264 -73 361 -90 509 -90 143 0
271 22 437 73 l106 32 -66 62 c-175 166 -325 228 -552 228 -109 0 -147 -4
-238 -28 -119 -30 -277 -90 -402 -153 -127 -64 -126 -64 -230 12 -226 165
-534 315 -796 388 -72 20 -101 37 -64 37 8 0 15 5 15 11 0 59 399 46 595 -19
69 -23 96 -27 195 -27 147 1 220 19 530 135 129 48 255 94 279 102 l45 14
-125 51 c-189 78 -259 94 -429 99 -103 2 -164 -1 -209 -11z"/>
<path d="M8875 14580 c-102 -22 -182 -49 -275 -96 -116 -57 -229 -155 -217
-188 16 -42 214 -67 358 -47 216 31 463 150 532 257 18 27 29 34 57 35 82 2
85 16 5 21 -44 4 -105 13 -135 22 -73 21 -212 19 -325 -4z"/>
<path d="M7682 14444 c-28 -19 -52 -65 -52 -99 0 -95 117 -150 189 -89 48 40
57 92 28 152 -23 48 -118 69 -165 36z"/>
<path d="M9776 14230 c-60 -19 -106 -83 -106 -147 0 -112 120 -186 220 -135
76 38 105 144 59 219 -33 54 -111 82 -173 63z"/>
<path d="M9050 14125 c-64 -18 -153 -59 -169 -79 -9 -11 -4 -18 24 -36 108
-67 354 -66 486 0 47 24 79 48 79 61 0 4 -26 20 -57 35 -52 26 -69 29 -183 31
-88 2 -141 -2 -180 -12z"/>
<path d="M9940 13763 c0 -39 49 -138 99 -200 74 -92 228 -193 295 -193 27 0
28 1 22 38 -13 72 -59 145 -146 233 -89 90 -185 149 -242 149 -24 0 -28 -4
-28 -27z"/>
<path d="M12845 13546 c-85 -38 -118 -134 -75 -220 29 -59 63 -80 135 -84 70
-4 112 17 146 70 16 26 19 46 17 95 -3 53 -9 68 -33 94 -53 56 -126 73 -190
45z"/>
<path d="M4053 13260 c-89 -54 -82 -200 11 -244 70 -33 146 -10 186 56 37 62
16 152 -44 189 -41 25 -112 25 -153 -1z"/>
<path d="M9758 13124 c-101 -24 -219 -91 -332 -188 -259 -224 -519 -705 -695
-1291 -25 -82 -41 -113 -87 -175 -87 -115 -216 -261 -333 -378 l-106 -107 -3
215 c-4 260 14 823 30 981 25 234 14 300 -65 386 -140 153 -350 107 -392 -84
-7 -37 -16 -41 -36 -17 -40 48 -161 84 -285 84 -192 0 -337 -62 -479 -205
-194 -194 -289 -438 -302 -772 -7 -175 6 -296 44 -418 64 -202 190 -363 343
-438 57 -28 75 -31 150 -32 75 0 93 4 153 32 115 55 212 160 299 328 l47 90 1
-291 0 -291 -152 -130 c-472 -402 -708 -675 -809 -937 -67 -174 -82 -254 -83
-441 0 -135 3 -183 18 -235 54 -195 160 -311 335 -368 97 -32 279 -36 381 -9
202 53 376 209 492 442 171 341 272 910 295 1656 l6 218 211 213 212 213 -22
-125 c-96 -547 -121 -1271 -58 -1725 56 -406 160 -662 331 -814 72 -64 140
-97 230 -111 130 -20 226 19 348 144 91 92 174 209 267 376 142 256 317 656
404 922 l38 118 -20 27 c-29 39 -68 51 -102 33 -22 -13 -38 -48 -97 -210 -94
-257 -158 -403 -283 -650 -150 -296 -269 -467 -371 -532 -54 -33 -79 -35 -115
-7 -112 88 -164 513 -153 1234 7 425 36 734 113 1190 177 1048 506 1735 934
1950 l55 28 -48 42 c-79 72 -178 91 -309 59z m-2114 -815 c39 -30 76 -111 84
-182 14 -122 -2 -372 -32 -502 -87 -375 -255 -695 -366 -695 -61 0 -127 137
-150 313 -14 113 -12 316 5 430 35 235 162 500 284 596 82 64 130 75 175 40z
m62 -2036 c-3 -32 -8 -125 -11 -208 -26 -677 -137 -1149 -312 -1321 -122 -121
-300 -149 -423 -68 -142 94 -182 398 -90 676 58 172 135 296 312 495 125 141
494 483 521 483 4 0 6 -26 3 -57z" fill="#034d28"/>
<path d="M3770 12818 c0 -2 -12 -55 -25 -118 -31 -141 -44 -379 -26 -486 25
-149 98 -310 184 -409 l35 -40 17 40 c9 22 28 83 42 135 36 133 38 335 5 460
-28 103 -103 261 -169 352 -40 56 -63 80 -63 66z"/>
<path d="M4295 12619 c-31 -18 -45 -40 -45 -72 0 -62 54 -100 110 -77 36 15
50 37 50 78 0 57 -67 98 -115 71z"/>
<path d="M13214 12611 c-111 -50 -167 -176 -132 -293 15 -51 82 -126 133 -149
79 -36 187 -20 255 39 170 145 68 423 -156 422 -36 0 -75 -8 -100 -19z"/>
<path d="M5824 12346 c-138 -51 -227 -128 -280 -241 -18 -38 -35 -84 -39 -102
l-6 -31 43 9 c24 5 75 25 115 44 77 38 157 115 195 188 17 34 58 142 58 154 0
7 -28 1 -86 -21z"/>
<path d="M4388 12090 c-136 -72 -132 -275 7 -348 17 -8 55 -15 86 -15 66 0
108 20 152 76 57 69 47 199 -20 259 -54 49 -160 62 -225 28z"/>
<path d="M12782 11942 c-36 -34 -48 -80 -32 -127 16 -48 57 -75 115 -75 40 0
52 5 81 34 29 29 34 41 34 81 0 40 -5 52 -34 81 -30 30 -40 34 -84 34 -41 0
-55 -5 -80 -28z"/>
<path d="M5218 11894 c-53 -28 -73 -105 -43 -163 15 -31 69 -61 107 -61 37 0
88 37 104 77 22 51 11 95 -32 132 -39 35 -90 41 -136 15z"/>
<path d="M12029 11677 c-122 -82 -10 -270 121 -202 42 22 60 53 60 105 0 52
-18 83 -60 105 -41 21 -82 19 -121 -8z"/>
<path d="M3543 11589 c-43 -27 -67 -80 -60 -137 14 -127 191 -168 257 -59 24
39 26 107 5 148 -35 66 -136 90 -202 48z"/>
<path d="M13352 10013 c-18 -9 -42 -29 -53 -45 -84 -118 43 -272 173 -209 107
51 110 204 5 252 -51 23 -82 23 -125 2z"/>
<path d="M4900 9887 c-66 -23 -98 -104 -65 -167 22 -42 53 -60 105 -60 77 0
127 56 117 132 -6 46 -29 75 -74 94 -38 16 -38 16 -83 1z"/>
<path d="M11674 9646 c-29 -29 -34 -41 -34 -81 0 -40 5 -52 34 -81 33 -33 52
-39 106 -34 67 6 112 81 91 151 -15 51 -56 79 -116 79 -40 0 -52 -5 -81 -34z"/>
<path d="M12475 9614 c-167 -87 -143 -316 38 -365 50 -13 118 2 163 36 40 31
74 100 74 151 -1 74 -57 158 -123 183 -41 16 -117 13 -152 -5z"/>
<path d="M4096 9589 c-43 -37 -54 -81 -32 -132 16 -40 67 -77 104 -77 38 0 92
30 107 61 62 119 -79 236 -179 148z"/>
<path d="M13067 9514 c-72 -209 -77 -435 -12 -629 41 -124 184 -360 205 -339
16 16 60 259 66 365 15 241 -60 488 -193 638 l-39 44 -27 -79z"/>
<path d="M5240 9494 c-139 -147 -244 -349 -286 -547 -19 -92 -18 -249 2 -318
20 -67 68 -160 99 -189 19 -18 21 -26 14 -63 -4 -23 -8 -77 -9 -119 0 -43 -3
-78 -7 -78 -12 1 -113 184 -125 227 -6 21 -19 55 -30 76 -17 34 -18 45 -9 88
37 169 -12 289 -245 599 -80 107 -163 226 -184 263 l-37 69 -11 -31 c-25 -71
-35 -227 -23 -345 36 -354 201 -611 431 -669 20 -5 41 -38 112 -179 92 -181
93 -188 33 -188 -27 0 -32 6 -55 58 -54 126 -195 224 -405 278 -81 21 -131 27
-265 31 -91 2 -182 1 -203 -4 l-38 -8 93 -66 c51 -37 149 -112 217 -167 132
-108 213 -156 295 -178 59 -16 171 -18 242 -5 27 5 90 6 141 2 l91 -6 83 -110
c46 -60 152 -179 235 -263 143 -142 151 -153 131 -163 -36 -20 -86 -12 -272
39 -262 72 -317 83 -450 89 -145 7 -283 -13 -460 -64 -66 -19 -122 -37 -124
-39 -17 -16 177 -172 271 -218 256 -126 544 -98 937 90 74 35 147 64 162 64
20 0 55 -19 109 -59 210 -156 522 -309 786 -385 88 -26 111 -36 81 -36 -9 0
-20 -6 -24 -14 -13 -21 -44 -33 -108 -41 -96 -10 -377 22 -471 56 -82 29 -190
40 -286 29 -109 -13 -221 -45 -433 -127 -93 -36 -208 -78 -254 -93 l-84 -28
39 -20 c66 -33 230 -91 322 -114 122 -30 303 -30 425 0 133 33 438 164 481
207 6 7 59 20 116 29 148 24 298 63 345 89 l40 23 143 -21 144 -21 18 37 19
37 -73 7 -72 6 -117 116 c-172 169 -176 182 -161 463 10 198 -36 400 -137 602
-73 147 -196 294 -238 286 -9 -2 -27 -30 -40 -63 -33 -82 -41 -278 -16 -410
52 -280 185 -542 322 -635 32 -21 71 -62 101 -105 27 -38 85 -110 127 -159
l78 -88 -79 7 c-174 15 -424 90 -614 185 l-96 48 -72 169 c-40 92 -72 173 -72
178 0 6 16 40 35 76 51 97 69 181 69 334 -1 158 -25 294 -90 495 -67 210 -217
555 -236 544 -17 -11 -68 -125 -87 -196 -33 -122 -44 -225 -43 -403 1 -406
105 -741 260 -835 36 -22 41 -30 42 -62 0 -48 32 -149 59 -186 32 -46 26 -46
-36 -1 -102 74 -225 181 -326 283 -131 131 -327 360 -327 380 0 10 -9 63 -19
119 -11 56 -25 140 -31 187 -12 84 -11 85 12 100 62 40 127 113 156 178 45 98
56 186 47 387 -4 94 -10 257 -14 364 l-6 194 -65 -69z"/>
<path d="M11434 9356 c-84 -31 -125 -58 -183 -122 -51 -56 -103 -151 -116
-213 l-7 -34 33 7 c68 13 179 75 240 132 62 60 113 147 125 217 8 45 -2 47
-92 13z"/>
<path d="M3660 9201 c-147 -45 -220 -200 -156 -336 73 -157 273 -189 393 -63
44 45 63 96 63 166 0 72 -35 148 -87 187 -59 46 -149 65 -213 46z"/>
<path d="M12094 9105 c-7 -19 -14 -46 -14 -59 0 -14 -5 -36 -11 -50 -14 -29
-129 -128 -239 -205 -83 -59 -71 -57 -245 -31 -251 38 -598 -46 -825 -200 -74
-50 -160 -129 -160 -146 0 -8 1 -14 3 -14 1 0 49 -9 107 -20 416 -81 809 22
997 261 36 46 75 78 172 140 126 80 126 80 129 54 9 -74 -60 -290 -154 -483
-85 -172 -140 -234 -266 -297 -50 -25 -98 -45 -108 -45 -10 0 -38 11 -61 25
-194 111 -516 117 -873 14 -185 -53 -508 -183 -507 -204 1 -15 147 -91 232
-121 139 -49 234 -65 411 -71 340 -11 582 65 764 239 45 43 88 78 95 78 8 0
48 17 89 37 41 21 79 39 83 41 21 10 -31 -69 -86 -133 -332 -380 -601 -603
-785 -650 -58 -15 -69 -15 -142 1 l-78 16 -104 107 c-122 125 -166 151 -272
159 -39 3 -224 -6 -412 -19 l-340 -23 55 -50 c198 -174 415 -301 570 -332 134
-26 288 -5 437 61 58 26 107 30 194 17 l45 -7 -29 -26 c-15 -14 -72 -52 -126
-83 -109 -63 -159 -76 -296 -76 -115 0 -177 -14 -269 -60 -87 -43 -289 -181
-429 -294 l-88 -71 38 -7 c22 -3 100 -12 174 -18 320 -29 497 28 665 213 54
60 160 198 193 252 9 14 241 164 302 195 122 62 333 224 494 380 l119 115 -7
-55 c-4 -30 -36 -185 -71 -345 -91 -412 -99 -461 -99 -665 -1 -143 2 -186 17
-235 22 -69 64 -155 76 -155 22 0 137 166 191 275 102 206 145 430 121 639
-25 223 -76 352 -215 541 -7 9 4 29 35 66 85 103 129 175 169 279 7 19 28 54
47 77 55 68 167 316 202 446 12 43 29 95 38 115 l16 37 17 -150 c10 -83 25
-195 34 -250 l17 -100 -30 -82 c-56 -151 -75 -268 -75 -458 0 -191 21 -316 75
-454 31 -81 102 -201 119 -201 12 0 83 139 117 230 56 148 74 239 80 390 7
208 -24 335 -113 466 -58 85 -82 161 -93 296 -8 93 -16 131 -48 213 l-38 100
3 203 c3 209 -3 239 -34 167z"/>
<path d="M12653 8875 c-42 -30 -34 -121 12 -139 47 -18 91 -4 111 36 30 58 -6
118 -71 118 -17 0 -40 -7 -52 -15z"/>
<path d="M12866 8350 c-93 -28 -128 -139 -72 -225 21 -32 96 -59 140 -51 137
26 155 218 26 270 -45 18 -52 18 -94 6z"/>
<path d="M4052 8103 c-57 -28 -86 -77 -87 -144 0 -43 5 -65 21 -86 75 -101
217 -99 277 5 27 46 26 121 -3 167 -41 67 -136 94 -208 58z"/>
<path d="M6680 7958 c0 -127 233 -366 383 -392 34 -6 37 -5 37 16 -1 39 -46
136 -91 195 -76 98 -209 192 -296 209 -32 6 -33 6 -33 -28z"/>
<path d="M7167 7416 c-96 -35 -133 -127 -87 -216 69 -135 284 -83 284 68 0
109 -99 183 -197 148z"/>
<path d="M7772 7385 c-74 -14 -170 -53 -192 -80 -18 -22 1 -40 66 -64 123 -46
319 -33 443 31 36 18 66 38 68 44 6 19 -61 54 -134 69 -82 18 -154 18 -251 0z"/>
<path d="M10929 7158 c-33 -65 -76 -126 -144 -203 -97 -110 -136 -164 -172
-242 -58 -126 -93 -327 -93 -539 l0 -95 67 88 c37 48 117 149 177 225 121 148
164 214 205 310 24 58 26 74 26 203 0 101 -5 162 -19 218 -10 42 -20 77 -22
77 -2 0 -13 -19 -25 -42z"/>
<path d="M9244 7120 c-38 -15 -74 -68 -74 -110 0 -48 45 -105 90 -115 40 -9
95 11 120 42 25 32 27 108 4 142 -29 40 -94 60 -140 41z"/>
<path d="M8307 7109 c-208 -30 -429 -128 -521 -229 -20 -22 -36 -44 -36 -49 0
-10 -123 -31 -186 -31 -40 0 -54 6 -108 49 -68 54 -106 76 -106 63 0 -10 73
-80 137 -131 36 -29 45 -44 68 -119 26 -83 27 -90 15 -157 -19 -107 -24 -312
-11 -404 33 -226 110 -412 260 -626 l55 -79 10 39 c5 22 10 132 10 245 1 180
-2 218 -22 309 -43 192 -99 327 -200 481 -46 70 -119 236 -109 246 1 2 25 -14
52 -35 303 -230 717 -482 860 -523 22 -7 63 -32 90 -57 102 -91 309 -166 525
-192 146 -17 320 -2 320 28 0 29 -41 92 -85 131 -103 90 -268 127 -535 119
-96 -3 -194 -11 -218 -17 -39 -9 -50 -7 -117 21 -71 29 -289 149 -349 192
l-29 21 58 16 c44 12 72 14 110 8 198 -32 601 116 782 288 55 52 57 56 39 69
-27 20 -96 28 -195 23 -192 -11 -463 -137 -628 -291 -57 -54 -66 -59 -120 -64
-32 -3 -65 -9 -74 -14 -19 -9 -149 76 -377 247 l-133 99 112 3 c64 1 126 -2
143 -8 57 -21 178 -29 270 -18 188 21 413 111 521 209 80 74 84 84 37 108 -73
37 -189 48 -315 30z"/>
<path d="M6895 6672 c-73 -46 -102 -109 -92 -198 10 -91 101 -161 198 -152
168 16 228 231 94 334 -50 38 -153 46 -200 16z"/>
<path d="M6270 6450 c-27 -27 -27 -83 2 -110 48 -44 128 -9 128 56 0 63 -86
98 -130 54z"/>
<path d="M5645 6432 c-40 -25 -83 -77 -91 -108 -4 -14 -4 -49 -2 -79 8 -101
96 -173 199 -163 168 16 228 231 94 334 -50 38 -153 46 -200 16z"/>
<path d="M8024 6265 c0 -38 -5 -110 -13 -160 -21 -139 -10 -321 28 -470 37
-145 128 -337 222 -469 l64 -89 9 39 c5 22 10 131 10 244 1 228 -8 295 -69
477 -42 124 -85 212 -165 331 -33 50 -67 108 -74 129 l-14 38 2 -70z"/>
<path d="M10945 6306 c-16 -8 -42 -26 -57 -42 -108 -116 -26 -304 131 -304
159 0 241 188 133 304 -51 54 -140 72 -207 42z"/>
<path d="M9513 6284 c-34 -17 -63 -66 -63 -107 0 -38 41 -91 82 -104 68 -22
130 11 148 78 12 44 -3 91 -38 122 -29 26 -90 31 -129 11z"/>
<path d="M6320 6009 c-104 -12 -238 -43 -297 -69 l-44 -19 15 -29 c70 -135
316 -181 676 -127 198 30 433 90 427 109 -12 38 -152 98 -285 122 -106 19
-376 26 -492 13z"/>
<path d="M9977 5966 c-94 -35 -147 -110 -147 -210 0 -127 92 -218 221 -218
190 0 289 195 175 345 -59 78 -167 114 -249 83z"/>
<path d="M7286 5681 c-46 -31 -70 -77 -69 -134 2 -110 117 -179 219 -131 102
49 111 197 15 261 -44 30 -123 31 -165 4z"/>
<path d="M8990 5572 c-92 -46 -96 -188 -7 -242 40 -25 109 -26 147 -3 36 21
70 81 70 124 0 70 -70 139 -140 139 -19 0 -51 -8 -70 -18z"/>
<path d="M10397 4064 c-3 -3 -54 -14 -114 -25 -97 -16 -167 -18 -670 -19 -351
0 -563 -4 -563 -10 0 -5 17 -12 38 -15 59 -11 70 -15 102 -42 63 -53 60 -6 60
-878 0 -718 -2 -800 -16 -832 -25 -50 -76 -85 -134 -91 -33 -3 -50 -9 -50 -18
0 -12 113 -14 700 -14 385 0 700 3 700 6 0 3 27 125 60 270 33 145 60 266 60
270 0 3 -5 4 -10 2 -6 -2 -25 -37 -43 -78 -79 -181 -198 -294 -352 -335 -45
-11 -114 -15 -282 -15 l-223 0 0 380 0 380 208 0 c179 0 212 -3 247 -19 77
-35 135 -122 135 -203 0 -18 5 -28 15 -28 13 0 15 41 15 310 0 269 -2 310 -15
310 -11 0 -15 -11 -15 -37 0 -58 -42 -137 -90 -172 -58 -42 -116 -51 -320 -51
l-180 0 0 401 0 401 258 -4 c243 -3 260 -4 307 -26 96 -44 144 -114 153 -219
3 -44 9 -63 18 -63 11 0 14 43 14 235 0 129 -1 235 -3 235 -2 0 -6 -3 -10 -6z" fill="#034d28"/>
<path d="M13380 3833 c0 -128 4 -233 9 -233 4 0 11 28 13 63 6 76 33 131 87
180 64 57 113 67 348 67 l203 0 0 -803 c0 -494 -4 -815 -10 -836 -19 -67 -90
-121 -160 -121 -29 0 -40 -4 -40 -15 0 -13 52 -15 410 -15 358 0 410 2 410 15
0 11 -11 15 -35 15 -76 0 -144 53 -165 128 -6 24 -10 317 -10 835 l0 798 223
-3 c200 -3 226 -5 267 -24 91 -42 141 -117 148 -221 3 -45 8 -63 18 -63 12 0
14 42 14 236 0 206 -2 235 -15 230 -8 -3 -52 -13 -98 -23 -74 -16 -147 -18
-762 -18 -644 1 -685 2 -767 21 l-88 20 0 -233z" fill="#034d28"/>
<path d="M16565 4054 c-108 -29 -209 -34 -751 -34 -345 0 -554 -4 -554 -10 0
-5 17 -12 38 -15 56 -10 87 -24 115 -53 59 -61 57 -33 57 -864 0 -494 -4 -776
-10 -800 -21 -75 -87 -128 -160 -128 -29 0 -40 -4 -40 -15 0 -13 84 -15 699
-15 658 0 700 1 705 18 22 76 117 524 112 529 -8 8 -5 13 -64 -107 -59 -122
-108 -182 -193 -239 -107 -71 -157 -81 -420 -81 l-229 0 0 380 0 380 209 0
209 0 53 -28 c68 -35 119 -112 119 -179 0 -32 4 -43 15 -43 13 0 15 41 15 310
0 269 -2 310 -15 310 -11 0 -15 -11 -15 -42 -1 -92 -67 -174 -162 -203 -38
-11 -99 -15 -240 -15 l-188 0 0 401 0 400 258 -4 c291 -4 308 -8 382 -74 51
-46 73 -93 86 -185 15 -107 24 -35 24 187 0 129 -1 234 -2 234 -2 -1 -25 -8
-53 -15z" fill="#034d28"/>
<path d="M1140 4050 c-582 -68 -915 -455 -887 -1030 13 -270 89 -464 246 -632
123 -131 271 -217 456 -263 404 -103 902 5 1166 252 l49 46 0 239 c0 308 7
327 128 343 28 4 52 11 52 16 0 5 -160 9 -380 9 -227 0 -380 -4 -380 -9 0 -5
26 -13 57 -17 47 -6 64 -13 90 -39 l33 -33 0 -236 c0 -215 -2 -240 -19 -275
-45 -88 -165 -174 -287 -205 -79 -20 -232 -21 -309 -1 -131 35 -261 135 -334
258 -49 84 -98 235 -117 367 -21 145 -14 390 14 525 65 305 230 497 482 561
86 22 262 22 355 0 213 -51 374 -201 446 -415 12 -34 25 -61 30 -61 6 0 8 95
7 233 l-3 232 -85 32 c-219 82 -587 129 -810 103z" fill="#034d28"/>
<path d="M5015 4050 c-584 -63 -935 -430 -935 -980 0 -464 252 -804 690 -931
183 -53 458 -68 655 -34 276 46 500 168 642 349 146 187 216 448 192 719 -12
141 -40 244 -98 362 -132 266 -384 440 -726 500 -107 18 -318 26 -420 15z
m324 -126 c132 -35 276 -150 354 -284 139 -239 168 -678 67 -983 -77 -231
-231 -389 -430 -442 -73 -19 -240 -19 -314 0 -136 36 -261 128 -345 257 -179
273 -198 801 -42 1122 137 279 412 407 710 330z" fill="#034d28"/>
<path d="M7727 4053 c-3 -5 -107 -253 -232 -553 -125 -300 -234 -561 -242
-580 -11 -27 -16 -32 -22 -20 -5 8 -82 222 -172 475 -184 518 -188 535 -131
586 18 16 41 29 51 29 26 0 51 10 51 21 0 5 -178 9 -415 9 -257 0 -415 -4
-415 -10 0 -5 17 -12 38 -15 95 -16 174 -67 210 -135 7 -14 158 -421 336 -905
178 -484 329 -881 334 -883 6 -2 14 23 18 55 4 32 17 94 29 138 22 82 456
1115 465 1110 3 -2 138 -296 299 -654 162 -358 298 -651 302 -651 4 0 10 26
14 58 3 31 12 89 19 127 19 97 483 1583 507 1622 39 63 107 102 202 118 20 3
37 10 37 15 0 6 -111 10 -285 10 -158 0 -285 -4 -285 -9 0 -5 20 -14 44 -20
59 -14 86 -49 86 -109 0 -28 -53 -230 -137 -529 l-138 -485 -30 64 c-16 35
-138 303 -270 595 -132 293 -245 533 -252 533 -6 0 -14 -3 -16 -7z" fill="#034d28"/>
<path d="M2440 4011 c0 -4 25 -13 56 -19 70 -15 111 -44 135 -96 18 -39 19
-82 19 -825 0 -776 0 -785 -21 -828 -26 -54 -88 -93 -147 -93 -31 0 -42 -4
-42 -15 0 -13 82 -15 703 -13 l702 3 56 245 c30 135 59 257 62 273 6 21 4 27
-8 27 -8 0 -15 -5 -15 -12 0 -7 -20 -54 -45 -105 -76 -156 -194 -261 -339
-299 -36 -10 -117 -14 -273 -14 l-223 0 0 815 c0 894 -3 845 60 898 32 27 43
31 103 42 20 3 37 10 37 15 0 6 -156 10 -410 10 -225 0 -410 -4 -410 -9z" fill="#034d28"/>
<path d="M10750 4010 c0 -5 17 -12 38 -15 86 -15 141 -60 161 -132 15 -52 15
-1534 1 -1585 -21 -75 -89 -128 -165 -128 -24 0 -35 -4 -35 -15 0 -13 84 -15
700 -15 l700 0 5 23 c31 131 115 511 115 518 0 18 -22 8 -27 -12 -13 -50 -84
-178 -126 -230 -58 -71 -149 -133 -234 -159 -57 -18 -93 -20 -294 -20 l-229 0
0 808 0 809 23 44 c25 48 82 84 150 94 20 3 37 10 37 15 0 6 -156 10 -410 10
-254 0 -410 -4 -410 -10z" fill="#034d28"/>
<path d="M12400 4011 c0 -5 21 -12 48 -16 62 -9 117 -45 142 -95 20 -38 20
-56 20 -831 l0 -792 -25 -44 c-29 -49 -71 -75 -134 -82 -25 -4 -46 -12 -49
-18 -3 -10 83 -13 407 -13 342 0 411 2 411 14 0 9 -17 15 -50 18 -58 6 -109
41 -134 91 -14 32 -16 114 -16 835 l0 799 23 34 c31 46 77 75 132 83 25 4 45
11 45 17 0 5 -161 9 -410 9 -232 0 -410 -4 -410 -9z" fill="#034d28"/>
<path d="M5711 1523 c1 -155 2 -164 13 -113 15 70 39 110 84 140 34 24 44 25
204 28 l168 4 0 -566 c0 -609 0 -606 -52 -653 -13 -12 -42 -27 -63 -32 -28 -6
52 -9 255 -9 193 0 282 3 257 9 -20 5 -49 16 -64 26 -53 35 -53 36 -53 653 l0
570 153 0 c126 0 159 -4 192 -19 68 -31 105 -86 105 -156 0 -19 5 -37 10 -40
7 -4 10 52 10 160 l0 167 -27 -7 c-84 -21 -178 -25 -583 -25 -396 0 -526 6
-592 26 -17 5 -18 -7 -17 -163z" fill="#034d28"/>
<path d="M9525 1664 c14 -50 18 -1223 5 -1255 -17 -40 -43 -60 -97 -75 -42
-11 -12 -13 242 -13 254 0 284 2 242 13 -53 15 -80 35 -96 74 -8 19 -10 149
-9 415 l3 387 483 -460 c266 -253 487 -460 491 -460 4 0 4 21 0 47 -4 27 -8
314 -8 638 -1 648 -4 617 59 650 16 8 43 15 60 15 16 0 30 5 30 10 0 6 -103
10 -290 10 -187 0 -290 -4 -290 -10 0 -5 15 -10 33 -10 38 0 90 -30 109 -62
17 -30 25 -812 9 -807 -6 2 -223 207 -482 454 -260 248 -479 454 -487 459 -12
7 -14 4 -7 -20z" fill="#034d28"/>
<path d="M548 1661 c-107 -35 -170 -89 -214 -186 -35 -77 -44 -187 -20 -266
31 -104 65 -136 334 -314 136 -89 259 -176 274 -191 68 -73 65 -179 -5 -252
-61 -64 -99 -77 -222 -77 -100 0 -115 3 -166 28 -105 51 -176 153 -186 268 -3
33 -9 59 -13 59 -9 0 -35 -68 -51 -132 -6 -26 -9 -80 -7 -119 3 -65 7 -74 33
-95 91 -74 333 -113 513 -84 163 27 294 120 342 245 34 86 35 229 2 301 -34
76 -94 126 -339 284 -122 78 -238 159 -258 180 -79 81 -52 206 57 261 165 84
390 7 414 -143 10 -59 21 -45 28 35 4 39 9 99 13 132 l5 61 -143 12 c-201 17
-322 15 -391 -7z" fill="#034d28"/>
<path d="M1920 1665 c-287 -58 -484 -235 -546 -490 -23 -94 -23 -286 -1 -375
66 -255 245 -421 525 -487 115 -27 357 -25 474 5 218 54 370 170 456 347 51
103 65 175 66 320 1 216 -50 350 -184 486 -95 96 -215 160 -360 189 -112 23
-328 26 -430 5z m273 -65 c219 -36 357 -218 387 -512 29 -288 -59 -545 -223
-652 -116 -77 -282 -88 -410 -29 -132 62 -227 199 -263 382 -21 106 -15 354
11 446 64 228 214 362 420 374 11 0 46 -3 78 -9z" fill="#034d28"/>
<path d="M8312 1669 c-84 -14 -201 -56 -272 -99 -196 -115 -310 -331 -310
-585 0 -335 187 -577 516 -666 67 -19 106 -22 254 -22 203 -1 276 14 420 84
67 33 102 59 165 123 132 133 185 271 185 480 0 141 -19 228 -71 334 -90 181
-256 297 -492 346 -83 18 -304 20 -395 5z m282 -74 c164 -35 279 -156 336
-355 33 -115 38 -324 12 -453 -39 -185 -127 -314 -262 -380 -61 -30 -70 -32
-180 -32 -110 0 -119 2 -181 32 -163 81 -260 263 -276 518 -18 309 100 572
292 649 90 36 161 42 259 21z" fill="#034d28"/>
<path d="M11387 1669 c-99 -23 -197 -104 -240 -197 -18 -39 -22 -65 -22 -157
0 -182 19 -205 340 -418 132 -87 251 -168 264 -180 32 -29 61 -94 61 -137 0
-85 -71 -168 -167 -196 -75 -22 -200 -15 -265 13 -108 49 -187 157 -196 270
-2 35 -8 63 -13 63 -20 0 -52 -119 -57 -212 l-4 -98 31 -29 c117 -109 480
-133 667 -45 182 86 273 322 194 500 -32 74 -86 119 -341 284 -277 180 -303
204 -302 284 2 114 107 191 258 190 116 -1 199 -45 240 -127 14 -28 25 -59 25
-69 0 -10 4 -18 9 -18 4 0 11 39 15 88 4 48 9 107 12 132 l6 46 -144 12 c-161
14 -315 14 -371 1z" fill="#034d28"/>
<path d="M15594 1670 c-284 -51 -489 -220 -559 -462 -39 -138 -36 -335 9 -468
80 -235 279 -389 563 -436 301 -49 585 38 694 213 18 29 20 44 14 140 -7 134
-15 216 -21 211 -2 -3 -15 -49 -29 -104 -46 -181 -116 -288 -226 -343 -81 -40
-154 -54 -269 -49 -88 3 -104 7 -173 41 -162 80 -254 242 -276 487 -26 284 57
515 226 631 155 107 404 97 553 -21 50 -40 115 -137 137 -206 9 -30 20 -54 25
-54 10 0 10 108 2 241 l-7 95 -56 23 c-128 50 -198 63 -381 66 -96 2 -198 0
-226 -5z" fill="#034d28"/>
<path d="M3010 1650 c0 -5 12 -10 28 -10 39 0 73 -20 99 -59 l23 -34 0 -554
c0 -580 -1 -597 -44 -632 -9 -8 -38 -20 -64 -27 -40 -11 31 -13 453 -13 l500
-1 39 178 c22 97 41 183 44 190 2 6 0 12 -5 12 -5 0 -22 -30 -38 -67 -40 -93
-127 -181 -210 -212 -53 -21 -80 -23 -225 -25 l-165 -1 0 580 c0 553 1 581 19
608 22 33 65 57 101 57 14 0 25 5 25 10 0 6 -103 10 -290 10 -187 0 -290 -4
-290 -10z" fill="#034d28"/>
<path d="M4180 1650 c0 -5 11 -10 25 -10 38 0 79 -25 93 -55 9 -19 12 -141 12
-443 0 -526 6 -556 128 -684 66 -69 158 -119 269 -145 109 -25 334 -25 418 0
170 53 271 142 327 292 22 58 23 73 28 518 l5 459 33 29 c22 20 43 29 67 29
19 0 35 5 35 10 0 6 -73 10 -200 10 -187 0 -255 -10 -158 -23 29 -4 50 -14 65
-32 l23 -26 0 -427 c0 -453 -5 -503 -50 -592 -80 -156 -269 -227 -453 -170
-135 42 -224 165 -247 340 -7 53 -10 229 -8 468 l3 384 33 29 c23 20 43 29 68
29 21 0 33 4 29 10 -4 6 -107 10 -276 10 -173 0 -269 -4 -269 -10z" fill="#034d28"/>
<path d="M7040 1650 c0 -5 13 -10 29 -10 40 0 94 -40 108 -80 9 -25 12 -183
12 -572 1 -468 -1 -543 -15 -577 -18 -45 -46 -67 -101 -80 -25 -6 63 -9 257
-9 255 -1 289 1 248 12 -26 7 -55 19 -64 27 -43 35 -44 52 -44 632 l0 554 23
34 c26 39 60 59 100 59 15 0 27 5 27 10 0 6 -103 10 -290 10 -187 0 -290 -4
-290 -10z" fill="#034d28"/>
<path d="M12660 1650 c0 -5 12 -10 28 -10 15 0 42 -9 60 -20 63 -38 62 -33 62
-636 0 -478 -2 -550 -16 -579 -18 -40 -49 -62 -101 -74 -24 -6 151 -9 461 -8
l499 2 24 105 c13 58 32 142 42 187 10 46 16 83 12 83 -3 0 -21 -32 -40 -72
-45 -96 -124 -176 -206 -207 -53 -21 -80 -23 -225 -25 l-165 -1 -3 568 c-2
627 -3 618 60 657 18 11 45 20 61 20 15 0 27 5 27 10 0 6 -103 10 -290 10
-187 0 -290 -4 -290 -10z" fill="#034d28"/>
<path d="M13830 1650 c0 -5 11 -10 25 -10 39 0 83 -27 105 -63 19 -31 20 -54
20 -585 0 -579 -1 -596 -44 -631 -9 -8 -38 -20 -64 -27 -39 -11 34 -12 453
-11 l500 2 42 185 c23 102 39 187 37 189 -5 6 -5 7 -47 -81 -46 -94 -120 -166
-205 -198 -49 -19 -79 -22 -222 -24 l-165 -1 -3 561 c-2 431 1 571 10 600 15
44 66 84 109 84 16 0 29 5 29 10 0 6 -103 10 -290 10 -187 0 -290 -4 -290 -10z" fill="#034d28"/>
</g>
</svg>
