<?xml version="1.0" standalone="no"?>
<!DOCTYPE svg PUBLIC "-//W3C//DTD SVG 20010904//EN"
 "http://www.w3.org/TR/2001/REC-SVG-20010904/DTD/svg10.dtd">
<svg version="1.0" xmlns="http://www.w3.org/2000/svg"
 width="3113.000000pt" height="1202.000000pt" viewBox="0 0 3113.000000 1202.000000"
 preserveAspectRatio="xMidYMid meet">

<g transform="translate(0.000000,1202.000000) scale(0.100000,-0.100000)"
fill="#034d28" stroke="none">
<path d="M6067 11624 c-3 -5 -10 -71 -17 -146 -18 -212 7 -423 72 -608 39
-110 118 -264 176 -343 25 -34 54 -84 63 -112 19 -54 23 -45 10 22 -5 28 -3
67 6 115 9 41 15 134 16 213 1 214 -33 365 -128 560 -67 138 -186 318 -198
299z" fill="#62644C"/>
<path d="M5273 11394 c-52 -26 -76 -74 -71 -140 4 -45 10 -61 36 -87 26 -26
40 -31 89 -34 70 -5 111 16 136 70 23 48 21 98 -6 138 -42 63 -119 85 -184 53z" fill="#62644C"/>
<path d="M6960 11298 c-54 -28 -82 -72 -82 -132 0 -90 59 -150 148 -151 59 0
94 20 132 75 58 85 -6 213 -114 226 -28 4 -51 -1 -84 -18z" fill="#62644C"/>
<path d="M6517 11304 c-3 -5 -10 -71 -17 -146 -28 -339 51 -658 231 -924 26
-40 59 -103 72 -140 14 -38 28 -77 32 -87 4 -10 -50 24 -121 76 -331 240 -614
412 -774 468 -40 14 -83 39 -111 64 -90 79 -258 149 -434 180 -136 23 -385 18
-412 -9 -3 -3 4 -25 16 -50 86 -176 375 -247 797 -194 l91 11 109 -54 c60 -30
158 -83 217 -119 l108 -65 -43 -14 c-28 -9 -82 -13 -153 -12 -168 3 -336 -39
-520 -131 -135 -68 -285 -180 -285 -213 0 -47 212 -53 355 -10 174 51 365 156
472 260 64 62 62 61 157 74 l68 10 92 -61 c50 -34 197 -142 327 -240 130 -98
242 -178 249 -178 18 0 -10 30 -99 107 -72 61 -75 66 -102 151 l-29 87 17 85
c24 126 22 337 -6 467 -37 178 -103 334 -207 488 -71 106 -90 129 -97 119z" fill="#62644C"/>
<path d="M4245 11156 c-58 -27 -88 -57 -110 -108 -47 -114 30 -267 150 -299
96 -26 203 16 252 99 23 38 28 59 28 113 0 56 -5 73 -30 114 -60 97 -183 131
-290 81z" fill="#62644C"/>
<path d="M7715 10950 c-139 -22 -227 -41 -343 -76 -83 -25 -84 -26 -66 -45 25
-28 127 -74 206 -93 241 -59 671 -41 850 36 26 11 48 27 48 34 0 22 -70 94
-113 115 -100 52 -353 64 -582 29z" fill="#62644C"/>
<path d="M3314 10749 c-73 -21 -134 -125 -120 -202 8 -45 43 -96 83 -123 92
-62 217 -24 264 81 23 49 24 84 3 133 -40 96 -130 140 -230 111z" fill="#62644C"/>
<path d="M4764 10631 c-97 -59 -53 -211 62 -211 39 0 51 5 80 34 29 29 34 41
34 81 0 40 -5 52 -34 81 -40 40 -92 46 -142 15z" fill="#62644C"/>
<path d="M8608 10626 c-88 -32 -128 -87 -128 -177 0 -66 23 -114 73 -150 149
-108 352 49 282 219 -39 93 -139 140 -227 108z" fill="#62644C"/>
<path d="M3848 10603 c-9 -15 -87 -116 -173 -223 -243 -303 -278 -373 -279
-565 0 -100 8 -162 35 -268 l10 -38 29 58 c28 55 72 114 203 269 137 162 202
385 195 672 -3 120 -3 123 -20 95z" fill="#62644C"/>
<path d="M2894 10413 c-180 -215 -274 -476 -274 -764 0 -225 66 -442 182 -598
46 -61 51 -58 62 29 4 30 36 186 71 345 35 160 72 340 81 400 19 127 22 368 6
437 -17 67 -49 149 -70 176 l-18 23 -40 -48z" fill="#62644C"/>
<path d="M7360 10388 c-134 -39 -178 -206 -82 -307 55 -58 130 -75 200 -46 70
30 121 102 122 173 0 63 -45 138 -100 167 -37 19 -100 25 -140 13z" fill="#62644C"/>
<path d="M8024 10377 c-20 -17 -27 -33 -27 -57 0 -34 39 -80 68 -80 79 0 112
110 44 145 -38 20 -53 19 -85 -8z" fill="#62644C"/>
<path d="M4276 10144 c-150 -36 -303 -160 -445 -361 -69 -98 -78 -106 -189
-178 -65 -42 -154 -97 -199 -122 -120 -67 -315 -217 -448 -345 -188 -180 -296
-321 -349 -454 -15 -36 -45 -90 -67 -119 -62 -82 -152 -292 -210 -488 -13 -43
-26 -80 -30 -83 -4 -2 -10 15 -13 38 -16 137 -48 378 -54 408 -6 26 1 59 29
145 50 146 69 269 69 434 0 213 -34 379 -107 526 -43 86 -81 137 -95 129 -16
-10 -103 -199 -132 -287 -46 -140 -61 -232 -60 -377 0 -188 34 -303 130 -443
45 -65 64 -130 75 -260 7 -82 18 -136 49 -228 45 -134 50 -182 36 -365 -10
-129 0 -170 28 -116 9 17 19 53 23 79 5 41 13 55 57 96 64 61 183 151 242 184
44 25 47 25 107 12 40 -9 123 -14 232 -14 143 1 185 5 265 24 141 34 284 93
386 160 104 67 203 156 188 170 -15 15 -163 41 -285 51 -131 11 -285 -1 -404
-31 -165 -41 -348 -155 -426 -264 -21 -29 -64 -67 -114 -99 -117 -76 -175
-109 -182 -103 -19 19 64 303 132 451 104 227 193 320 365 381 41 15 43 14
123 -25 126 -61 195 -74 382 -74 182 1 326 25 528 90 180 58 447 168 447 185
0 13 -129 81 -220 116 -150 56 -272 76 -465 77 -183 1 -267 -10 -400 -51 -146
-46 -244 -104 -339 -201 -40 -41 -71 -63 -100 -72 -22 -6 -65 -25 -95 -41 -30
-16 -56 -27 -59 -25 -12 13 60 102 232 289 193 210 412 391 553 457 81 38 152
47 235 30 61 -13 67 -17 178 -125 63 -62 129 -120 147 -129 41 -21 146 -35
220 -30 32 2 191 13 353 25 162 11 295 21 297 22 1 2 -38 35 -86 76 -274 228
-448 311 -651 311 -109 0 -189 -17 -310 -64 -78 -31 -91 -33 -159 -27 -41 3
-76 11 -78 17 -4 13 55 55 166 119 l85 48 125 8 c268 17 276 20 491 164 146
98 342 246 348 264 4 13 -212 31 -359 30 -78 0 -158 -7 -193 -15z" fill="#62644C"/>
<path d="M8731 10105 c-111 -25 -212 -63 -361 -136 -80 -39 -152 -76 -160 -83
-8 -7 -54 -18 -103 -25 -119 -16 -311 -65 -354 -91 l-35 -21 -133 21 c-74 11
-139 20 -145 20 -6 0 -17 -15 -25 -32 -13 -31 -12 -33 8 -40 12 -3 42 -6 67
-7 44 -1 49 -5 160 -113 169 -166 191 -219 168 -410 -20 -167 16 -378 101
-583 64 -158 174 -314 250 -358 l31 -18 25 53 c99 217 18 654 -175 938 -41 61
-107 124 -146 142 -14 6 -45 41 -69 77 -24 36 -82 110 -129 163 l-86 97 68 -5
c178 -15 429 -90 612 -181 l115 -58 72 -171 72 -172 -38 -76 c-127 -252 -81
-641 133 -1128 95 -216 111 -248 121 -245 20 7 75 133 94 217 46 195 53 481
16 700 -42 256 -137 460 -238 515 -32 17 -36 24 -42 74 -8 66 -38 149 -66 185
-32 40 -11 31 75 -34 177 -131 353 -305 546 -535 l67 -80 27 -132 c14 -72 26
-146 26 -165 0 -18 5 -51 11 -73 10 -37 9 -41 -12 -55 -50 -32 -127 -112 -152
-157 -61 -114 -73 -237 -51 -544 9 -128 14 -279 11 -334 l-5 -100 67 71 c212
221 339 559 303 805 -13 89 -63 208 -105 247 -24 22 -24 26 -19 140 2 64 8
121 12 126 5 4 18 -10 29 -33 12 -22 35 -62 51 -87 16 -26 37 -72 46 -103 8
-31 24 -70 33 -87 17 -28 17 -37 5 -95 -10 -47 -11 -80 -4 -125 21 -128 65
-211 232 -432 116 -154 194 -266 223 -322 l19 -35 14 45 c22 72 27 309 8 415
-52 298 -195 509 -388 572 l-54 18 -89 172 c-50 94 -87 174 -85 176 3 3 21 8
40 12 35 6 35 6 64 -57 79 -171 293 -281 600 -308 109 -9 268 -4 294 10 10 5
-1 16 -35 38 -26 17 -124 92 -218 167 -93 74 -200 151 -237 169 -92 47 -187
62 -303 48 -49 -6 -130 -9 -180 -5 l-90 6 -75 101 c-41 55 -147 174 -236 263
l-161 162 30 11 c47 16 62 13 258 -41 264 -73 361 -90 509 -90 143 0 271 22
437 73 l106 32 -66 62 c-173 165 -325 228 -547 228 -187 1 -359 -46 -607 -164
-173 -82 -163 -82 -261 -9 -226 165 -540 319 -803 392 -72 20 -101 37 -64 37
8 0 15 5 15 11 0 5 17 17 38 26 30 13 63 14 177 10 177 -7 279 -21 380 -55 69
-23 96 -27 195 -27 147 1 220 19 530 135 129 48 255 94 279 102 l44 14 -114
47 c-192 80 -272 99 -439 103 -102 3 -164 -1 -209 -11z" fill="#62644C"/>
<path d="M6240 9940 c-105 -22 -195 -53 -280 -95 -117 -59 -229 -157 -217
-189 16 -42 214 -67 358 -47 216 31 463 150 532 257 18 27 29 34 57 35 82 2
85 16 5 21 -44 4 -105 13 -135 22 -72 21 -212 20 -320 -4z" fill="#62644C"/>
<path d="M5042 9804 c-28 -19 -52 -65 -52 -99 0 -95 117 -150 189 -89 48 40
57 92 28 152 -23 48 -118 69 -165 36z" fill="#62644C"/>
<path d="M7136 9590 c-60 -19 -106 -83 -106 -147 0 -112 120 -186 220 -135 76
38 105 144 59 219 -33 54 -111 82 -173 63z" fill="#62644C"/>
<path d="M6435 9490 c-63 -13 -147 -48 -179 -73 l-29 -24 37 -22 c109 -68 354
-68 487 -1 47 24 79 48 79 61 0 4 -26 20 -57 35 -51 26 -68 28 -177 31 -67 1
-139 -2 -161 -7z" fill="#62644C"/>
<path d="M7300 9123 c0 -39 49 -138 99 -200 74 -92 228 -193 295 -193 27 0 28
1 22 38 -13 72 -59 145 -146 233 -89 89 -186 149 -242 149 -24 0 -28 -4 -28
-27z" fill="#62644C"/>
<path d="M23349 9056 c-2 -2 -38 -12 -79 -22 -66 -15 -153 -18 -749 -23 -527
-5 -675 -9 -679 -18 -2 -9 9 -13 38 -13 70 0 155 -58 179 -123 8 -19 11 -312
11 -913 0 -796 -2 -888 -16 -917 -34 -67 -79 -98 -158 -107 -27 -3 -51 -11
-54 -17 -3 -10 158 -13 781 -13 l785 0 17 73 c103 445 122 538 108 535 -9 -2
-25 -30 -37 -63 -12 -33 -37 -87 -56 -120 -45 -80 -170 -203 -241 -238 -105
-52 -145 -58 -416 -64 l-253 -6 0 432 0 432 238 -3 c264 -3 277 -6 345 -75 45
-44 66 -89 74 -153 4 -33 11 -50 19 -50 12 0 14 61 14 345 0 300 -2 345 -15
345 -10 0 -15 -10 -15 -33 0 -91 -59 -180 -148 -224 -57 -28 -59 -28 -284 -31
l-228 -4 0 447 0 446 293 -3 c280 -3 294 -4 342 -26 100 -46 156 -130 171
-257 15 -122 24 -41 24 205 0 143 -1 260 -3 260 -2 0 -6 -2 -8 -4z"/>
<path d="M26680 8801 c0 -214 2 -261 14 -261 9 0 15 19 18 63 10 121 67 205
170 253 l63 29 240 0 240 0 3 -894 c1 -599 -1 -906 -8 -932 -11 -41 -58 -102
-94 -121 -11 -6 -45 -14 -75 -17 -30 -3 -56 -12 -59 -18 -3 -10 93 -13 458
-13 365 0 461 3 458 13 -3 6 -27 14 -54 17 -67 7 -115 39 -147 99 l-27 49 2
908 3 909 230 0 c265 0 307 -8 383 -78 61 -57 84 -107 90 -194 3 -53 8 -73 18
-73 12 0 14 47 14 261 0 239 -1 261 -16 255 -10 -4 -58 -14 -108 -24 -81 -15
-173 -17 -846 -17 -782 0 -798 1 -947 41 l-23 6 0 -261z"/>
<path d="M30299 9056 c-2 -2 -38 -12 -79 -22 -66 -15 -153 -18 -749 -23 -527
-5 -675 -9 -679 -18 -2 -9 9 -13 38 -13 74 0 168 -69 187 -138 5 -15 8 -421 8
-902 0 -836 -1 -877 -19 -910 -38 -72 -81 -101 -160 -110 -27 -3 -51 -11 -54
-17 -3 -10 158 -13 782 -13 l786 0 5 23 c3 12 30 132 60 267 30 135 59 262 64
283 15 61 -13 45 -39 -22 -76 -204 -228 -355 -411 -408 -69 -19 -559 -32 -559
-14 0 6 0 199 0 429 l0 417 217 3 c238 3 270 -1 339 -49 51 -35 104 -132 104
-191 0 -27 4 -38 15 -38 13 0 15 45 15 345 0 300 -2 345 -15 345 -10 0 -15
-10 -15 -33 0 -92 -65 -189 -152 -228 -49 -22 -68 -24 -272 -27 -125 -2 -222
0 -227 5 -6 6 -9 192 -9 444 l0 434 279 3 c265 2 282 1 337 -19 111 -42 175
-129 190 -257 14 -130 24 -52 24 198 0 143 -1 260 -3 260 -2 0 -6 -2 -8 -4z"/>
<path d="M13025 9043 c-423 -35 -748 -235 -908 -558 -155 -314 -156 -758 -1
-1068 134 -268 360 -444 679 -529 117 -31 125 -32 345 -32 201 -1 236 2 330
22 279 63 488 163 622 299 l57 58 3 282 3 283 33 32 c28 28 41 34 94 38 36 3
63 10 66 18 3 9 -86 12 -423 12 -337 0 -426 -3 -423 -12 3 -8 31 -16 68 -19
57 -6 67 -10 97 -42 l33 -37 0 -268 0 -268 -29 -45 c-62 -96 -149 -161 -276
-206 -72 -25 -93 -28 -210 -28 -116 0 -138 3 -210 28 -240 84 -385 278 -457
609 -18 88 -22 135 -22 318 -1 238 10 312 65 484 84 260 274 442 513 493 93
20 280 19 375 -1 119 -25 251 -95 331 -175 76 -76 146 -189 181 -292 13 -38
27 -69 31 -69 5 0 8 116 8 259 l0 259 -50 21 c-227 98 -643 158 -925 134z"/>
<path d="M17323 9040 c-316 -33 -568 -145 -749 -332 -96 -99 -133 -152 -186
-264 -65 -139 -89 -252 -95 -441 -8 -243 21 -401 104 -566 105 -212 261 -363
475 -461 185 -85 330 -116 573 -123 214 -6 307 3 481 47 251 63 463 200 604
390 148 199 219 487 192 773 -26 276 -117 482 -287 652 -157 158 -384 268
-637 310 -114 19 -364 27 -475 15z m362 -137 c286 -71 484 -344 536 -738 17
-129 6 -434 -19 -550 -42 -193 -117 -339 -232 -456 -275 -277 -751 -246 -986
64 -143 188 -215 475 -201 796 24 540 252 852 662 905 49 6 176 -5 240 -21z"/>
<path d="M20344 8997 c-12 -28 -86 -205 -164 -392 -78 -187 -158 -378 -177
-425 -19 -47 -64 -154 -100 -239 -35 -84 -69 -165 -74 -180 -13 -34 -14 -32
-77 149 -28 80 -83 235 -122 345 -152 425 -200 568 -200 596 0 65 61 129 123
129 17 0 27 5 27 15 0 13 -55 15 -457 13 -354 -2 -457 -6 -461 -15 -2 -9 8
-13 31 -13 71 0 164 -49 216 -113 23 -27 61 -119 131 -312 15 -44 58 -161 95
-260 37 -99 84 -227 105 -285 21 -58 62 -168 90 -245 29 -77 77 -207 107 -290
30 -82 74 -202 98 -265 23 -63 61 -166 83 -228 65 -175 75 -185 86 -85 17 139
104 371 351 933 30 70 142 334 179 424 10 23 20 36 25 30 5 -5 39 -76 76 -159
37 -82 100 -222 140 -310 40 -88 137 -302 215 -475 220 -487 228 -504 238
-508 6 -2 13 30 17 70 10 104 30 193 75 337 73 236 301 965 366 1176 121 389
132 419 170 464 45 52 120 91 191 98 33 4 52 10 50 17 -6 17 -629 15 -634 -1
-3 -9 6 -13 27 -13 72 0 120 -53 120 -132 0 -23 -18 -104 -40 -178 -88 -300
-260 -914 -260 -927 0 -7 -4 -13 -8 -13 -5 0 -79 156 -166 348 -87 191 -221
488 -299 659 -95 208 -147 313 -157 313 -9 0 -24 -22 -36 -53z"/>
<path d="M14457 9003 c-16 -15 -4 -23 36 -23 64 0 126 -36 162 -95 l30 -48 3
-875 2 -874 -24 -53 c-32 -70 -80 -106 -153 -114 -32 -3 -58 -12 -61 -19 -3
-10 155 -12 784 -10 l787 3 14 60 c29 133 115 511 119 528 4 11 0 17 -10 17
-9 0 -16 -6 -16 -13 0 -28 -102 -216 -147 -270 -56 -67 -154 -138 -230 -167
-78 -29 -214 -41 -423 -38 l-185 3 0 922 0 921 31 39 c37 47 105 83 156 83 27
0 38 4 38 15 0 13 -57 15 -453 15 -250 0 -457 -3 -460 -7z"/>
<path d="M23747 9004 c-13 -13 5 -24 39 -24 47 0 120 -36 149 -74 12 -17 28
-49 34 -71 15 -55 15 -1724 0 -1778 -13 -47 -63 -106 -106 -123 -18 -8 -51
-14 -73 -14 -29 0 -40 -4 -40 -15 0 -13 91 -15 782 -13 l782 3 7 30 c13 63
118 521 124 548 5 19 3 27 -6 27 -8 0 -25 -28 -37 -63 -58 -153 -171 -292
-289 -355 -110 -58 -160 -66 -433 -66 l-245 -1 -3 895 c-2 614 1 907 8 932 22
77 102 137 183 138 26 0 37 4 37 15 0 13 -57 15 -453 15 -250 0 -457 -3 -460
-6z"/>
<path d="M25600 8995 c0 -11 11 -15 38 -15 55 0 122 -38 157 -88 l30 -44 3
-876 c1 -483 0 -892 -3 -910 -7 -40 -68 -110 -112 -129 -18 -7 -51 -13 -73
-13 -29 0 -40 -4 -40 -15 0 -13 57 -15 455 -15 398 0 455 2 455 15 0 11 -11
15 -40 15 -22 0 -55 6 -73 14 -43 18 -94 77 -107 125 -7 27 -9 320 -8 908 3
858 3 868 24 908 28 55 89 95 153 103 28 4 52 12 51 17 0 6 -160 11 -455 13
-400 2 -455 0 -455 -13z"/>
<path d="M10205 8906 c-85 -38 -118 -134 -75 -220 29 -59 63 -80 135 -84 70
-4 112 17 146 70 16 26 19 46 17 95 -3 53 -9 68 -33 94 -53 56 -126 73 -190
45z" fill="#62644C"/>
<path d="M1413 8620 c-89 -54 -82 -200 11 -244 70 -33 146 -10 186 56 37 62
16 152 -44 189 -41 25 -112 25 -153 -1z" fill="#62644C"/>
<path d="M7118 8484 c-101 -24 -219 -91 -332 -188 -259 -224 -519 -705 -695
-1291 -25 -82 -41 -113 -87 -175 -87 -115 -216 -261 -333 -378 l-106 -107 -3
215 c-4 260 14 823 30 981 25 234 14 300 -65 386 -140 153 -350 107 -392 -84
-7 -37 -16 -41 -36 -17 -40 48 -161 84 -285 84 -192 0 -337 -62 -479 -205
-194 -194 -289 -438 -302 -772 -7 -175 6 -296 44 -418 64 -202 190 -363 343
-438 57 -28 75 -31 150 -32 75 0 93 4 153 32 115 55 212 160 299 328 l47 90 1
-291 0 -291 -152 -130 c-472 -402 -708 -675 -809 -937 -67 -174 -82 -254 -83
-441 0 -135 3 -183 18 -235 54 -195 160 -311 335 -368 97 -32 279 -36 381 -9
202 53 376 209 492 442 171 341 272 910 295 1656 l6 218 211 213 212 213 -22
-125 c-96 -547 -121 -1271 -58 -1725 56 -406 160 -662 331 -814 72 -64 140
-97 230 -111 130 -20 226 19 348 144 91 92 174 209 267 376 142 256 317 656
404 922 l38 118 -20 27 c-29 39 -68 51 -102 33 -22 -13 -38 -48 -97 -210 -94
-257 -158 -403 -283 -650 -150 -296 -269 -467 -371 -532 -54 -33 -79 -35 -115
-7 -112 88 -164 513 -153 1234 7 425 36 734 113 1190 177 1048 506 1735 934
1950 l55 28 -48 42 c-79 72 -178 91 -309 59z m-2114 -815 c39 -30 76 -111 84
-182 14 -122 -2 -372 -32 -502 -87 -375 -255 -695 -366 -695 -61 0 -127 137
-150 313 -14 113 -12 316 5 430 35 235 162 500 284 596 82 64 130 75 175 40z
m62 -2036 c-3 -32 -8 -125 -11 -208 -26 -677 -137 -1149 -312 -1321 -122 -121
-300 -149 -423 -68 -142 94 -182 398 -90 676 58 172 135 296 312 495 125 141
494 483 521 483 4 0 6 -26 3 -57z"/>
<path d="M1130 8178 c0 -2 -12 -55 -25 -118 -31 -141 -44 -379 -26 -486 25
-149 98 -310 184 -409 l35 -40 17 40 c9 22 28 83 42 135 36 133 38 335 5 460
-28 103 -103 261 -169 352 -40 56 -63 80 -63 66z" fill="#62644C"/>
<path d="M1655 7978 c-31 -16 -45 -39 -45 -71 0 -40 14 -62 50 -77 54 -22 110
15 110 74 0 38 -10 55 -41 71 -33 18 -47 18 -74 3z" fill="#62644C"/>
<path d="M10575 7971 c-108 -49 -167 -173 -135 -286 16 -56 81 -132 135 -156
82 -37 189 -20 260 43 130 115 91 336 -71 404 -47 20 -141 17 -189 -5z" fill="#62644C"/>
<path d="M3184 7706 c-138 -51 -227 -128 -280 -241 -18 -38 -35 -84 -39 -102
l-6 -31 43 9 c24 5 75 25 115 44 77 38 157 115 195 188 17 34 58 142 58 154 0
7 -28 1 -86 -21z" fill="#62644C"/>
<path d="M1755 7453 c-68 -36 -106 -97 -106 -171 -1 -113 76 -194 186 -196 63
0 119 26 159 77 56 70 45 199 -21 259 -51 46 -160 62 -218 31z" fill="#62644C"/>
<path d="M10142 7302 c-36 -34 -48 -80 -32 -127 16 -48 57 -75 115 -75 40 0
52 5 81 34 29 29 34 41 34 81 0 40 -5 52 -34 81 -30 30 -40 34 -84 34 -41 0
-55 -5 -80 -28z" fill="#62644C"/>
<path d="M2578 7254 c-53 -28 -73 -105 -43 -163 15 -31 69 -61 107 -61 37 0
88 37 104 77 22 51 11 95 -32 132 -39 35 -90 41 -136 15z" fill="#62644C"/>
<path d="M9389 7037 c-122 -82 -10 -270 121 -202 42 22 60 53 60 105 0 52 -18
83 -60 105 -41 21 -82 19 -121 -8z" fill="#62644C"/>
<path d="M903 6949 c-43 -27 -67 -80 -60 -137 14 -127 191 -168 257 -59 24 39
26 107 5 148 -35 66 -136 90 -202 48z" fill="#62644C"/>
<path d="M22095 6079 c-3872 -15 -7505 -28 -8072 -28 l-1033 -1 0 -59 0 -59
858 4 c1424 8 14274 54 15040 54 l712 0 0 60 0 60 -232 -1 c-128 -1 -3401 -14
-7273 -30z" fill="#62644C"/>
<path d="M10712 5373 c-18 -9 -42 -29 -53 -45 -84 -118 43 -272 173 -209 107
51 110 204 5 252 -51 23 -82 23 -125 2z" fill="#62644C"/>
<path d="M2260 5247 c-66 -23 -98 -104 -65 -167 22 -42 53 -60 105 -60 77 0
127 56 117 132 -6 46 -29 75 -74 94 -38 16 -38 16 -83 1z" fill="#62644C"/>
<path d="M12550 5143 c-213 -19 -354 -130 -401 -316 -6 -27 -10 -84 -7 -131 5
-105 39 -180 112 -249 28 -26 168 -124 311 -218 143 -93 270 -179 282 -191 35
-33 63 -99 63 -149 0 -57 -41 -141 -85 -175 -76 -58 -198 -83 -305 -64 -189
33 -313 160 -329 334 -3 39 -10 70 -16 70 -5 -1 -21 -31 -34 -65 -27 -74 -42
-261 -22 -297 16 -30 104 -77 191 -102 108 -31 347 -39 456 -15 216 47 351
177 385 371 23 135 -14 267 -99 352 -20 20 -107 82 -192 136 -368 236 -411
267 -441 314 -48 76 -39 148 26 220 55 62 121 86 236 86 91 1 100 -1 165 -34
78 -40 129 -103 140 -171 4 -22 10 -39 14 -39 8 0 15 60 26 218 l7 92 -51 0
c-28 0 -95 4 -149 9 -127 13 -239 18 -283 14z"/>
<path d="M14115 5138 c-238 -15 -434 -102 -576 -256 -130 -141 -190 -309 -190
-532 0 -238 62 -401 211 -551 73 -74 100 -93 190 -138 149 -73 231 -92 424
-98 244 -9 380 17 547 103 179 92 308 252 362 449 30 110 34 305 9 428 -63
301 -288 512 -617 578 -109 21 -213 26 -360 17z m279 -108 c88 -30 176 -99
237 -187 40 -57 87 -179 106 -271 19 -97 21 -322 4 -422 -67 -383 -346 -581
-676 -479 -161 50 -287 213 -337 433 -28 121 -29 363 -4 481 55 252 196 416
396 462 72 16 200 9 274 -17z"/>
<path d="M18331 4963 c1 -187 1 -188 15 -123 17 78 51 129 107 161 40 23 53
24 225 27 l182 4 -2 -676 -3 -676 -31 -30 c-18 -18 -51 -37 -80 -45 -44 -12
-16 -13 279 -16 312 -4 388 0 295 15 -22 4 -54 16 -71 28 -58 41 -57 28 -57
743 l0 655 163 0 c89 0 178 -5 198 -10 87 -24 145 -94 156 -189 12 -106 23
-44 23 134 0 102 -3 185 -7 185 -5 0 -44 -7 -88 -15 -116 -21 -1104 -21 -1220
0 -44 8 -81 15 -82 15 -2 0 -3 -84 -2 -187z"/>
<path d="M21405 5139 c-131 -10 -239 -39 -350 -94 -195 -95 -308 -226 -377
-435 -30 -91 -32 -102 -32 -260 0 -158 2 -169 32 -260 69 -209 182 -340 377
-435 149 -73 235 -90 470 -90 173 0 212 3 286 22 173 44 323 134 427 255 58
68 128 212 149 308 21 100 21 300 -1 400 -32 147 -126 306 -233 395 -185 151
-439 217 -748 194z m272 -104 c133 -40 257 -168 313 -323 47 -131 63 -243 57
-407 -6 -166 -28 -262 -88 -383 -98 -200 -286 -302 -501 -273 -213 29 -362
176 -430 426 -19 70 -22 105 -22 275 1 168 4 206 22 275 78 287 270 445 522
430 41 -2 98 -11 127 -20z"/>
<path d="M22695 5118 c4 -18 9 -343 12 -723 3 -674 3 -691 -16 -722 -26 -41
-57 -61 -112 -72 -28 -6 76 -9 291 -9 289 0 327 1 278 12 -32 7 -67 21 -79 32
-48 42 -49 55 -49 524 0 242 3 440 6 440 7 0 22 -13 631 -592 260 -247 477
-448 483 -448 8 0 9 6 4 18 -5 9 -10 333 -12 719 -3 785 -7 745 68 783 21 11
53 20 70 20 16 0 30 5 30 10 0 6 -117 10 -330 10 -213 0 -330 -4 -330 -10 0
-5 15 -10 33 -10 51 0 99 -31 125 -80 22 -44 22 -48 22 -477 0 -237 -3 -434
-7 -436 -5 -3 -255 231 -558 519 -302 288 -554 523 -559 524 -4 0 -5 -15 -1
-32z"/>
<path d="M24895 5139 c-88 -10 -141 -29 -209 -74 -191 -126 -227 -426 -74
-601 18 -21 164 -124 323 -230 205 -136 297 -203 313 -228 63 -94 45 -206 -47
-289 -54 -49 -132 -72 -241 -70 -223 3 -371 136 -399 358 l-8 60 -22 -48 c-51
-109 -65 -294 -27 -336 27 -30 125 -77 201 -97 55 -15 106 -19 245 -19 153 0
184 3 245 22 219 69 336 223 337 443 0 64 -5 99 -21 142 -38 98 -87 140 -379
329 -147 94 -282 186 -300 203 -46 43 -64 81 -64 137 0 88 66 167 167 200 49
16 186 17 240 1 92 -26 164 -98 186 -185 6 -26 15 -45 19 -42 4 2 10 46 14 97
3 51 9 119 12 151 l7 57 -59 0 c-33 0 -97 4 -144 9 -131 15 -238 18 -315 10z"/>
<path d="M29750 5139 c-181 -13 -333 -60 -453 -139 -123 -82 -188 -153 -247
-269 -119 -237 -110 -575 21 -799 19 -31 71 -94 115 -139 69 -69 97 -89 185
-132 162 -78 245 -95 474 -96 169 0 199 3 270 23 138 40 261 123 329 220 l26
38 -10 165 c-5 90 -10 174 -10 187 0 46 -18 19 -30 -45 -31 -167 -89 -293
-175 -378 -88 -89 -204 -129 -375 -128 -198 1 -334 74 -434 237 -86 137 -121
297 -113 511 8 233 65 392 182 510 103 104 218 149 380 149 219 0 366 -88 460
-277 25 -49 45 -95 45 -103 0 -8 5 -14 12 -14 8 0 10 48 5 182 -5 160 -7 184
-23 195 -10 7 -66 29 -124 47 -155 50 -324 69 -510 55z"/>
<path d="M15246 5111 c-3 -5 12 -11 35 -14 50 -7 84 -29 109 -70 19 -31 20
-55 20 -675 0 -699 2 -676 -56 -721 -14 -11 -46 -23 -70 -27 -25 -3 -43 -8
-41 -11 5 -5 1129 -4 1134 1 2 2 24 94 49 205 24 111 45 205 47 209 1 4 -2 8
-7 10 -5 2 -21 -27 -37 -63 -38 -90 -96 -164 -164 -210 -90 -59 -126 -67 -335
-69 l-185 -1 -3 660 c-2 639 -1 661 18 692 25 41 59 63 109 70 23 3 38 9 35
14 -7 12 -651 12 -658 0z"/>
<path d="M16575 5110 c-4 -6 8 -10 28 -10 40 0 96 -35 114 -70 10 -19 13 -141
13 -505 0 -387 3 -492 15 -543 64 -271 306 -421 678 -422 204 0 343 40 458
132 61 49 124 143 156 233 l28 80 5 510 c4 374 8 516 17 531 15 26 71 54 107
54 14 0 26 5 26 10 0 6 -82 10 -225 10 -143 0 -225 -4 -225 -10 0 -5 12 -10
26 -10 40 0 93 -30 109 -61 13 -23 15 -107 15 -502 0 -507 -3 -551 -50 -653
-69 -153 -204 -234 -391 -234 -232 0 -381 142 -419 400 -15 102 -13 949 3 980
17 33 74 70 108 70 16 0 29 5 29 10 0 6 -110 10 -309 10 -196 0 -312 -4 -316
-10z"/>
<path d="M19856 5111 c-3 -5 12 -11 34 -14 50 -6 93 -37 114 -81 15 -32 16
-97 14 -678 l-3 -643 -22 -31 c-23 -32 -85 -64 -125 -64 -12 0 -19 -2 -16 -5
8 -8 658 -11 658 -3 0 3 -18 9 -41 13 -52 9 -105 55 -119 103 -14 50 -14 1234
0 1284 14 48 69 96 120 104 22 4 40 10 40 15 0 12 -647 12 -654 0z"/>
<path d="M26286 5111 c-3 -5 12 -11 34 -14 50 -6 99 -41 116 -83 11 -27 14
-149 14 -665 0 -561 -2 -635 -16 -665 -21 -44 -60 -72 -113 -80 -23 -4 -40 -8
-38 -11 4 -4 1129 -4 1133 0 7 7 95 420 91 430 -3 7 -8 4 -12 -8 -75 -201
-198 -313 -367 -335 -117 -15 -333 -13 -347 4 -9 10 -11 183 -9 664 3 639 3
651 24 678 31 43 67 65 112 71 23 3 39 9 36 14 -7 12 -651 12 -658 0z"/>
<path d="M27626 5111 c-3 -5 12 -11 34 -14 50 -6 99 -41 116 -83 21 -49 21
-1279 0 -1328 -17 -41 -58 -71 -116 -84 -32 -7 120 -10 528 -11 314 -1 572 2
572 7 0 4 20 96 45 205 25 110 45 206 45 215 0 25 -15 3 -39 -60 -26 -65 -86
-149 -134 -189 -94 -77 -203 -102 -427 -97 l-125 3 -3 669 -2 668 38 39 c28
27 51 40 80 45 23 4 42 10 42 15 0 12 -647 12 -654 0z"/>
<path d="M9034 5006 c-29 -29 -34 -41 -34 -81 0 -40 5 -52 34 -81 33 -33 52
-39 106 -34 61 5 109 76 95 140 -4 17 -20 44 -37 60 -25 25 -37 30 -80 30 -44
0 -54 -4 -84 -34z" fill="#62644C"/>
<path d="M9835 4974 c-167 -87 -143 -316 38 -365 50 -13 118 2 163 36 40 31
74 100 74 151 -1 74 -57 158 -123 183 -41 16 -117 13 -152 -5z" fill="#62644C"/>
<path d="M1456 4949 c-43 -37 -54 -81 -32 -132 16 -40 67 -77 104 -77 38 0 92
30 107 61 62 119 -79 236 -179 148z" fill="#62644C"/>
<path d="M10427 4874 c-72 -209 -77 -435 -12 -629 41 -124 184 -360 205 -339
5 5 21 68 36 139 34 163 39 396 11 509 -35 138 -100 272 -174 355 l-39 44 -27
-79z" fill="#62644C"/>
<path d="M2600 4854 c-139 -147 -244 -349 -286 -547 -19 -92 -18 -249 2 -318
20 -67 68 -160 99 -189 19 -18 21 -26 14 -63 -4 -23 -8 -77 -9 -119 0 -43 -3
-78 -7 -78 -14 1 -97 153 -124 225 -14 39 -30 80 -37 92 -9 17 -9 37 0 92 28
161 -26 286 -247 581 -81 107 -164 226 -185 263 l-37 69 -11 -31 c-25 -71 -35
-227 -23 -345 36 -354 201 -611 431 -669 20 -5 41 -38 112 -179 92 -181 93
-188 33 -188 -27 0 -32 6 -55 58 -54 126 -195 224 -405 278 -81 21 -131 27
-265 31 -91 2 -182 1 -203 -4 l-38 -8 93 -66 c51 -37 149 -112 217 -167 132
-108 213 -156 295 -178 59 -16 171 -18 242 -5 27 5 90 6 141 2 l91 -6 83 -110
c46 -60 152 -179 235 -263 143 -142 151 -153 131 -163 -36 -20 -86 -12 -272
39 -265 73 -317 83 -455 89 -89 4 -154 0 -225 -11 -111 -18 -355 -84 -355 -96
0 -13 129 -127 186 -166 176 -116 382 -151 614 -104 130 27 246 68 409 146 74
35 147 64 162 64 20 0 55 -19 109 -59 210 -156 522 -309 786 -385 88 -26 111
-36 81 -36 -9 0 -20 -6 -24 -14 -13 -21 -44 -33 -108 -41 -96 -10 -377 22
-471 56 -85 30 -191 40 -290 28 -114 -14 -217 -44 -429 -126 -93 -36 -208 -78
-254 -93 l-84 -28 39 -20 c66 -33 230 -91 322 -114 122 -30 303 -30 425 0 133
33 438 164 481 207 6 7 59 20 116 29 148 24 298 63 345 89 l40 23 143 -21 144
-21 18 37 19 37 -73 7 -72 6 -117 116 c-172 169 -176 182 -161 463 10 198 -36
400 -137 602 -73 147 -196 294 -238 286 -9 -2 -27 -30 -40 -63 -33 -80 -41
-267 -17 -402 48 -276 185 -550 323 -643 32 -21 71 -62 101 -105 27 -38 85
-110 127 -159 l78 -88 -79 7 c-177 16 -393 79 -589 174 l-120 58 -73 167 c-39
92 -72 173 -72 179 0 7 16 42 35 78 51 97 69 181 69 334 -1 158 -25 294 -90
495 -67 210 -217 555 -236 544 -17 -11 -68 -125 -87 -196 -33 -121 -44 -224
-43 -403 1 -405 105 -741 260 -835 36 -22 41 -30 42 -62 0 -48 32 -149 59
-186 32 -46 26 -46 -36 -1 -102 74 -225 181 -326 283 -131 131 -327 360 -327
380 0 10 -9 63 -19 119 -11 56 -25 140 -31 187 -12 84 -11 85 12 100 62 40
127 113 156 178 45 98 56 186 47 387 -4 94 -10 257 -14 364 l-6 194 -65 -69z" fill="#62644C"/>
<path d="M8794 4716 c-84 -31 -125 -58 -183 -122 -51 -56 -103 -151 -116 -213
l-7 -34 33 7 c68 13 179 75 240 132 62 60 113 147 125 217 8 45 -2 47 -92 13z" fill="#62644C"/>
<path d="M1020 4561 c-147 -45 -220 -200 -156 -336 73 -157 273 -189 393 -63
44 45 63 96 63 166 0 72 -35 148 -87 187 -59 46 -149 65 -213 46z" fill="#62644C"/>
<path d="M9454 4465 c-7 -19 -14 -46 -14 -59 0 -14 -5 -36 -11 -50 -14 -29
-129 -128 -239 -205 -83 -59 -71 -57 -245 -31 -251 38 -598 -46 -825 -200 -74
-50 -160 -129 -160 -146 0 -8 1 -14 3 -14 1 0 49 -9 107 -20 416 -81 809 22
997 261 36 46 75 78 172 140 l126 80 3 -30 c8 -77 -74 -325 -167 -506 -76
-147 -135 -211 -253 -270 -50 -25 -98 -45 -108 -45 -10 0 -37 11 -61 24 -242
135 -632 115 -1082 -54 -150 -56 -299 -124 -298 -135 1 -15 147 -91 232 -121
139 -49 234 -65 414 -71 133 -4 191 -2 265 11 222 39 369 106 496 228 45 43
88 78 95 78 8 0 48 17 89 37 41 21 79 39 83 41 21 10 -31 -69 -86 -133 -332
-380 -601 -603 -785 -650 -58 -15 -69 -15 -142 1 l-78 16 -104 107 c-122 125
-166 151 -271 159 -39 3 -224 -6 -412 -19 l-341 -23 55 -50 c198 -174 415
-301 570 -332 134 -26 288 -5 437 61 58 26 107 30 194 17 l45 -7 -29 -26 c-15
-14 -72 -52 -126 -83 -109 -63 -159 -76 -296 -76 -115 0 -177 -14 -269 -60
-87 -43 -289 -181 -429 -294 l-88 -71 38 -7 c22 -4 107 -12 191 -19 313 -26
481 30 648 214 54 60 160 198 193 252 9 14 241 164 302 195 122 62 333 224
494 380 l119 115 -7 -55 c-4 -30 -33 -174 -66 -320 -94 -423 -104 -489 -105
-690 0 -142 3 -186 18 -235 22 -69 64 -155 76 -155 22 0 137 166 191 275 102
206 145 430 121 639 -25 223 -76 352 -215 541 -7 9 4 29 35 66 85 103 129 175
169 279 7 19 29 55 48 79 48 60 167 323 201 446 48 174 52 174 72 0 9 -83 24
-195 33 -250 l17 -100 -30 -82 c-56 -151 -75 -268 -75 -458 0 -191 21 -316 75
-454 31 -82 102 -201 119 -201 5 0 30 39 54 88 185 369 196 755 28 1000 -58
85 -80 157 -92 296 -7 91 -16 129 -47 211 l-38 100 3 203 c3 209 -3 239 -34
167z" fill="#62644C"/>
<path d="M10013 4235 c-42 -30 -34 -121 12 -139 47 -18 91 -4 111 36 30 58 -6
118 -71 118 -17 0 -40 -7 -52 -15z" fill="#62644C"/>
<path d="M10226 3710 c-93 -28 -128 -139 -72 -225 21 -32 96 -59 140 -51 137
26 155 218 26 270 -45 18 -52 18 -94 6z" fill="#62644C"/>
<path d="M1412 3463 c-57 -28 -86 -77 -87 -144 0 -43 5 -65 21 -86 75 -101
217 -99 277 5 27 46 26 121 -3 167 -41 67 -136 94 -208 58z" fill="#62644C"/>
<path d="M4040 3318 c0 -127 244 -376 380 -390 44 -4 48 11 20 85 -53 142
-235 307 -367 333 -32 6 -33 6 -33 -28z" fill="#62644C"/>
<path d="M4527 2776 c-98 -36 -135 -132 -83 -221 76 -129 280 -76 280 73 0
109 -99 183 -197 148z" fill="#62644C"/>
<path d="M5132 2745 c-74 -14 -170 -53 -192 -80 -18 -22 1 -40 66 -64 123 -46
319 -33 443 31 36 18 66 38 68 44 6 19 -61 54 -134 69 -82 18 -154 18 -251 0z" fill="#62644C"/>
<path d="M8289 2518 c-33 -65 -76 -126 -144 -203 -97 -110 -136 -164 -172
-242 -58 -126 -93 -327 -93 -539 l0 -95 67 88 c37 48 117 149 177 225 121 148
164 214 205 310 24 58 26 74 26 203 0 101 -5 162 -19 218 -10 42 -20 77 -22
77 -2 0 -13 -19 -25 -42z" fill="#62644C"/>
<path d="M6604 2480 c-38 -15 -74 -68 -74 -110 0 -48 45 -105 90 -115 40 -9
95 11 120 42 25 32 27 108 4 142 -29 40 -94 60 -140 41z" fill="#62644C"/>
<path d="M5667 2469 c-208 -30 -429 -128 -521 -229 -20 -22 -36 -44 -36 -49 0
-10 -123 -31 -186 -31 -40 0 -54 6 -108 49 -67 53 -106 76 -106 63 0 -10 69
-76 131 -126 42 -33 50 -46 74 -124 26 -83 27 -90 15 -157 -19 -107 -24 -312
-11 -404 33 -227 113 -419 260 -625 l56 -78 9 38 c5 22 10 131 10 244 1 180
-2 218 -22 309 -44 195 -104 338 -206 491 -31 46 -56 87 -56 91 0 4 -13 41
-29 82 l-29 75 92 -67 c340 -251 687 -461 831 -503 22 -7 63 -32 90 -57 102
-91 309 -166 525 -192 146 -17 320 -2 320 28 0 29 -41 92 -85 131 -103 90
-268 127 -535 119 -96 -3 -194 -11 -218 -17 -39 -9 -50 -7 -117 21 -71 29
-289 149 -349 192 l-29 21 58 16 c44 12 72 14 110 8 141 -23 412 50 614 167
84 49 186 128 208 162 24 37 -12 48 -157 48 -118 -1 -131 -3 -235 -38 -171
-59 -319 -144 -432 -250 -57 -54 -66 -59 -120 -64 -32 -3 -65 -9 -74 -14 -19
-9 -149 76 -377 247 l-133 99 112 3 c64 1 126 -2 143 -8 57 -21 178 -29 270
-18 188 21 413 111 521 209 81 74 84 84 36 108 -71 37 -192 48 -314 30z" fill="#62644C"/>
<path d="M4255 2032 c-73 -46 -102 -109 -92 -198 10 -91 101 -161 198 -152
168 16 228 231 94 334 -50 38 -153 46 -200 16z" fill="#62644C"/>
<path d="M3630 1810 c-27 -27 -27 -83 2 -110 48 -44 128 -9 128 56 0 63 -86
98 -130 54z" fill="#62644C"/>
<path d="M3005 1792 c-40 -25 -83 -77 -91 -108 -4 -14 -4 -49 -2 -79 12 -138
171 -211 287 -130 103 71 106 225 6 301 -50 38 -153 46 -200 16z" fill="#62644C"/>
<path d="M5384 1625 c0 -38 -5 -110 -13 -160 -21 -137 -10 -320 28 -470 37
-145 128 -336 222 -469 l64 -89 9 44 c5 24 9 134 10 244 1 223 -9 291 -69 472
-42 126 -85 212 -167 333 -35 52 -68 111 -74 130 -10 32 -11 30 -10 -35z" fill="#62644C"/>
<path d="M8305 1666 c-16 -8 -42 -26 -57 -42 -108 -116 -26 -304 131 -304 159
0 241 188 133 304 -51 54 -140 72 -207 42z" fill="#62644C"/>
<path d="M6873 1644 c-34 -17 -63 -66 -63 -107 0 -38 41 -91 82 -104 68 -22
130 11 148 78 12 44 -3 91 -38 122 -29 26 -90 31 -129 11z" fill="#62644C"/>
<path d="M3730 1373 c-139 -13 -303 -49 -361 -79 -28 -14 -29 -16 -15 -43 80
-154 395 -190 846 -96 106 22 260 66 260 75 0 26 -117 85 -219 110 -133 33
-359 48 -511 33z" fill="#62644C"/>
<path d="M7351 1330 c-18 -4 -52 -21 -74 -36 -113 -80 -118 -249 -11 -343 47
-42 77 -53 145 -52 147 0 247 116 218 251 -27 126 -158 211 -278 180z" fill="#62644C"/>
<path d="M4646 1041 c-46 -31 -70 -77 -69 -134 2 -110 117 -179 219 -131 102
49 111 197 15 261 -44 30 -123 31 -165 4z" fill="#62644C"/>
<path d="M6353 935 c-95 -41 -97 -201 -4 -250 39 -20 106 -19 141 2 15 9 38
33 49 53 68 122 -56 252 -186 195z" fill="#62644C"/>
</g>
</svg>
